<svg xmlns="http://www.w3.org/2000/svg" xmlns:xlink="http://www.w3.org/1999/xlink" width="500" zoomAndPan="magnify" viewBox="0 0 375 374.999991" height="500" preserveAspectRatio="xMidYMid meet" version="1.2"><defs><clipPath id="6b8188e260"><path d="M 157 30.164062 L 331 30.164062 L 331 257.414062 L 157 257.414062 Z M 157 30.164062 "/></clipPath><clipPath id="9caafb0b1a"><path d="M 100 200 L 158 200 L 158 257.414062 L 100 257.414062 Z M 100 200 "/></clipPath><clipPath id="5d25ea1d43"><rect x="0" width="330" y="0" height="106"/></clipPath></defs><g id="73e1c9fdae"><g clip-rule="nonzero" clip-path="url(#6b8188e260)"><path style=" stroke:none;fill-rule:evenodd;fill:#ffffff;fill-opacity:1;" d="M 171.972656 30.164062 L 253.253906 30.164062 C 284.523438 30.164062 310.136719 55.753906 310.136719 87.046875 L 310.136719 98.164062 L 330.992188 139.113281 L 310.566406 143.929688 L 310.566406 187.824219 C 310.566406 194.964844 304.722656 200.8125 297.578125 200.8125 L 285.492188 200.8125 C 278.328125 200.8125 272.335938 206.1875 271.410156 213.125 C 271.492188 213.742188 271.535156 214.378906 271.535156 215.039062 L 271.535156 243.46875 C 271.535156 251.292969 265.132812 257.695312 257.308594 257.695312 L 228.855469 257.695312 C 221.035156 257.695312 214.632812 251.292969 214.632812 243.46875 L 214.632812 215.019531 C 214.632812 207.257812 208.332031 200.894531 200.589844 200.792969 L 171.972656 200.792969 C 164.152344 200.792969 157.75 194.390625 157.75 186.566406 L 157.75 158.136719 C 157.75 150.3125 164.152344 143.910156 171.972656 143.910156 L 200.40625 143.910156 C 208.226562 143.910156 214.632812 137.507812 214.632812 129.683594 L 214.632812 101.253906 C 214.632812 93.429688 208.226562 87.027344 200.40625 87.027344 L 171.972656 87.027344 C 164.152344 87.027344 157.75 80.625 157.75 72.800781 L 157.75 44.390625 C 157.769531 36.566406 164.171875 30.164062 171.972656 30.164062 Z M 171.972656 30.164062 "/></g><path style=" stroke:none;fill-rule:evenodd;fill:#2a2e30;fill-opacity:1;" d="M 86.660156 87.046875 L 58.230469 87.046875 C 50.40625 87.046875 44.003906 93.449219 44.003906 101.273438 L 44.003906 129.703125 C 44.003906 137.527344 50.40625 143.929688 58.230469 143.929688 L 86.660156 143.929688 C 94.484375 143.929688 100.886719 137.527344 100.886719 129.703125 L 100.886719 101.273438 C 100.886719 93.449219 94.484375 87.046875 86.660156 87.046875 Z M 86.660156 87.046875 "/><g clip-rule="nonzero" clip-path="url(#9caafb0b1a)"><path style=" stroke:none;fill-rule:evenodd;fill:#2a2e30;fill-opacity:1;" d="M 115.113281 200.792969 L 143.542969 200.792969 C 151.367188 200.792969 157.769531 207.195312 157.769531 215.019531 L 157.769531 243.449219 C 157.769531 251.273438 151.367188 257.675781 143.542969 257.675781 L 115.113281 257.675781 C 107.289062 257.675781 100.886719 251.273438 100.886719 243.449219 L 100.886719 215.019531 C 100.886719 207.195312 107.289062 200.792969 115.113281 200.792969 Z M 115.113281 200.792969 "/></g><g transform="matrix(1,0,0,1,24,256)"><g clip-path="url(#5d25ea1d43)"><g style="fill:#000000;fill-opacity:1;"><g transform="translate(0.381278, 83.97003)"><path style="stroke:none" d="M 3.828125 0 L 20.875 -62.625 L 31.84375 -62.625 L 48.359375 0 L 40.015625 0 L 35.65625 -17.65625 L 16.4375 -17.65625 L 12 0 Z M 18.09375 -24.1875 L 34.09375 -24.1875 L 28.015625 -48.96875 C 27.722656 -50.1875 27.457031 -51.300781 27.21875 -52.3125 C 26.988281 -53.332031 26.816406 -54.25 26.703125 -55.0625 C 26.585938 -55.925781 26.472656 -56.707031 26.359375 -57.40625 L 26.015625 -57.40625 C 25.890625 -56.707031 25.742188 -55.925781 25.578125 -55.0625 C 25.460938 -54.25 25.285156 -53.332031 25.046875 -52.3125 C 24.816406 -51.300781 24.554688 -50.1875 24.265625 -48.96875 Z M 18.09375 -24.1875 "/></g></g><g style="fill:#000000;fill-opacity:1;"><g transform="translate(55.183925, 83.97003)"><path style="stroke:none" d="M 22.09375 -6.875 L 22.09375 -55.75 L 8.265625 -55.75 L 8.265625 -62.625 L 43.921875 -62.625 L 43.921875 -55.75 L 30.09375 -55.75 L 30.09375 -6.875 L 43.921875 -6.875 L 43.921875 0 L 8.265625 0 L 8.265625 -6.875 Z M 22.09375 -6.875 "/></g></g><g style="fill:#000000;fill-opacity:1;"><g transform="translate(109.986571, 83.97003)"><path style="stroke:none" d="M 3.921875 -38.265625 C 3.921875 -42.210938 4.453125 -45.738281 5.515625 -48.84375 C 6.585938 -51.945312 8.140625 -54.582031 10.171875 -56.75 C 12.203125 -58.925781 14.664062 -60.59375 17.5625 -61.75 C 20.46875 -62.914062 23.75 -63.5 27.40625 -63.5 C 34.070312 -63.5 39.289062 -61.875 43.0625 -58.625 C 46.832031 -55.375 48.71875 -50.617188 48.71875 -44.359375 L 48.71875 -6.53125 L 42.53125 -6.53125 L 42.453125 -15.046875 C 41.054688 -8.785156 37.632812 -5.65625 32.1875 -5.65625 C 28.53125 -5.65625 25.726562 -6.972656 23.78125 -9.609375 C 21.84375 -12.242188 20.875 -16 20.875 -20.875 L 20.875 -27.828125 C 20.875 -32.648438 21.859375 -36.394531 23.828125 -39.0625 C 25.804688 -41.726562 28.59375 -43.0625 32.1875 -43.0625 C 36.882812 -43.0625 40.070312 -40.738281 41.75 -36.09375 C 41.8125 -35.925781 41.867188 -35.753906 41.921875 -35.578125 C 41.984375 -35.398438 42.039062 -35.195312 42.09375 -34.96875 C 42.039062 -35.71875 41.96875 -36.789062 41.875 -38.1875 C 41.789062 -39.582031 41.75 -41.0625 41.75 -42.625 L 41.75 -44.359375 C 41.75 -48.765625 40.488281 -52.039062 37.96875 -54.1875 C 35.445312 -56.332031 31.925781 -57.40625 27.40625 -57.40625 C 22.125 -57.40625 18.046875 -55.738281 15.171875 -52.40625 C 12.304688 -49.070312 10.875 -44.359375 10.875 -38.265625 L 10.875 -10.875 C 10.875 -8.09375 11.289062 -5.539062 12.125 -3.21875 C 12.96875 -0.894531 14.144531 1.070312 15.65625 2.6875 C 17.164062 4.3125 18.992188 5.570312 21.140625 6.46875 C 23.285156 7.375 25.660156 7.828125 28.265625 7.828125 L 34.359375 7.828125 L 34.359375 14.359375 L 28.265625 14.359375 C 24.554688 14.359375 21.191406 13.757812 18.171875 12.5625 C 15.160156 11.375 12.597656 9.691406 10.484375 7.515625 C 8.367188 5.347656 6.742188 2.703125 5.609375 -0.421875 C 4.484375 -3.554688 3.921875 -7.039062 3.921875 -10.875 Z M 27.828125 -20.875 C 27.828125 -17.738281 28.363281 -15.332031 29.4375 -13.65625 C 30.507812 -11.976562 32.035156 -11.140625 34.015625 -11.140625 C 39.171875 -11.140625 41.75 -14.675781 41.75 -21.75 L 41.75 -27.046875 C 41.75 -34.066406 39.171875 -37.578125 34.015625 -37.578125 C 32.035156 -37.578125 30.507812 -36.734375 29.4375 -35.046875 C 28.363281 -33.367188 27.828125 -30.960938 27.828125 -27.828125 Z M 27.828125 -20.875 "/></g></g><g style="fill:#000000;fill-opacity:1;"><g transform="translate(164.789218, 83.97003)"><path style="stroke:none" d="M 26.09375 0.875 C 20.125 0.875 15.515625 -0.75 12.265625 -4 C 9.015625 -7.25 7.390625 -11.710938 7.390625 -17.390625 L 7.390625 -62.625 L 15.21875 -62.625 L 15.21875 -17.390625 C 15.21875 -13.910156 16.144531 -11.15625 18 -9.125 C 19.863281 -7.101562 22.5625 -6.09375 26.09375 -6.09375 C 29.570312 -6.09375 32.253906 -7.101562 34.140625 -9.125 C 36.023438 -11.15625 36.96875 -13.910156 36.96875 -17.390625 L 36.96875 -62.625 L 44.796875 -62.625 L 44.796875 -17.390625 C 44.796875 -11.648438 43.171875 -7.171875 39.921875 -3.953125 C 36.679688 -0.734375 32.070312 0.875 26.09375 0.875 Z M 26.09375 0.875 "/></g></g><g style="fill:#000000;fill-opacity:1;"><g transform="translate(219.591865, 83.97003)"><path style="stroke:none" d="M 7.390625 -62.625 L 17.3125 -62.625 L 33.921875 -20.609375 C 34.390625 -19.566406 34.828125 -18.363281 35.234375 -17 C 35.640625 -15.644531 35.984375 -14.359375 36.265625 -13.140625 C 36.671875 -11.679688 37.050781 -10.203125 37.40625 -8.703125 L 38.09375 -8.703125 C 38.09375 -8.703125 38.0625 -9.003906 38 -9.609375 C 37.945312 -10.222656 37.863281 -11.050781 37.75 -12.09375 C 37.632812 -13.132812 37.53125 -14.335938 37.4375 -15.703125 C 37.351562 -17.066406 37.3125 -18.5 37.3125 -20 L 37.3125 -62.625 L 44.796875 -62.625 L 44.796875 0 L 34.875 0 L 18.53125 -42.09375 C 18.0625 -43.425781 17.59375 -44.789062 17.125 -46.1875 C 16.664062 -47.582031 16.289062 -48.859375 16 -50.015625 C 15.59375 -51.347656 15.25 -52.679688 14.96875 -54.015625 L 14.265625 -54.015625 C 14.378906 -53.085938 14.492188 -52.046875 14.609375 -50.890625 C 14.671875 -49.898438 14.726562 -48.722656 14.78125 -47.359375 C 14.84375 -45.992188 14.875 -44.472656 14.875 -42.796875 L 14.875 0 L 7.390625 0 Z M 7.390625 -62.625 "/></g></g><g style="fill:#000000;fill-opacity:1;"><g transform="translate(274.394511, 83.97003)"><path style="stroke:none" d="M 6.53125 0 L 6.53125 -62.625 L 16.265625 -62.625 L 23.921875 -41.40625 C 24.210938 -40.769531 24.472656 -40.03125 24.703125 -39.1875 C 24.929688 -38.34375 25.132812 -37.570312 25.3125 -36.875 C 25.539062 -36.007812 25.773438 -35.171875 26.015625 -34.359375 L 26.53125 -34.359375 C 26.757812 -35.171875 26.988281 -36.007812 27.21875 -36.875 C 27.457031 -37.570312 27.707031 -38.34375 27.96875 -39.1875 C 28.226562 -40.03125 28.472656 -40.769531 28.703125 -41.40625 L 35.921875 -62.625 L 45.671875 -62.625 L 45.671875 0 L 38.453125 0 L 38.453125 -43.921875 C 38.453125 -44.847656 38.460938 -45.890625 38.484375 -47.046875 C 38.515625 -48.210938 38.585938 -49.347656 38.703125 -50.453125 C 38.765625 -51.722656 38.820312 -53 38.875 -54.28125 L 38.359375 -54.28125 C 38.015625 -53.0625 37.664062 -51.875 37.3125 -50.71875 C 37.019531 -49.664062 36.6875 -48.53125 36.3125 -47.3125 C 35.9375 -46.101562 35.578125 -44.972656 35.234375 -43.921875 L 29.828125 -27.828125 L 22.53125 -27.828125 L 17.140625 -43.921875 C 16.785156 -45.023438 16.40625 -46.1875 16 -47.40625 C 15.59375 -48.625 15.25 -49.753906 14.96875 -50.796875 C 14.613281 -52.015625 14.265625 -53.203125 13.921875 -54.359375 L 13.484375 -54.359375 C 13.535156 -53.085938 13.59375 -51.8125 13.65625 -50.53125 C 13.65625 -49.488281 13.671875 -48.375 13.703125 -47.1875 C 13.734375 -46 13.75 -44.910156 13.75 -43.921875 L 13.75 0 Z M 6.53125 0 "/></g></g></g></g></g></svg>